<svg width="181" height="40" viewBox="0 0 181 40" fill="none" xmlns="http://www.w3.org/2000/svg">
<path d="M1.95487 0.572113C1.31815 0.728291 0.717471 1.17279 0.369075 1.76146L0.044707 2.3261L0.00866615 19.5657C-0.0153611 32.168 0.00866615 36.9734 0.104775 37.442C0.272966 38.1868 0.741498 38.7995 1.47433 39.1839L1.96689 39.4482L31.0879 39.4843C62.9601 39.5203 60.9899 39.5564 61.8549 38.8355C62.0591 38.6553 62.3474 38.2949 62.4916 38.0186L62.7559 37.526V19.9861V2.44624L62.4916 1.96569C62.1912 1.38904 61.6867 0.896481 61.1941 0.680237C60.9058 0.548088 55.4396 0.524059 31.5805 0.500031C15.4942 0.500031 2.15911 0.524059 1.95487 0.572113ZM41.5999 3.49142C41.744 3.69566 41.7921 4.06808 41.7921 4.90903C41.7921 6.43476 41.4437 6.96337 40.807 6.38671C40.4946 6.1104 40.4826 3.77975 40.795 3.44337C41.0593 3.15504 41.3836 3.16706 41.5999 3.49142ZM7.49316 5.26944C7.70941 5.48569 7.73343 5.66589 7.72142 7.13156C7.72142 9.31804 7.80551 9.23394 5.57098 9.23394C3.34846 9.23394 3.43255 9.33005 3.43255 7.13156C3.43255 5.5818 3.44457 5.48569 3.72088 5.18535L4.00921 4.88501L5.63105 4.95709C7.02463 5.01716 7.27691 5.06521 7.49316 5.26944ZM59.0557 5.17334C59.32 5.41361 59.332 5.50972 59.332 7.10753C59.332 9.34207 59.4401 9.23394 57.2176 9.23394C55.86 9.23394 55.4636 9.1979 55.3314 9.05374C54.923 8.65729 54.911 5.70193 55.3074 5.26944C55.5357 5.01716 55.9321 4.95709 57.6381 4.93306C58.6592 4.90903 58.8034 4.93306 59.0557 5.17334ZM47.895 5.22139C48.0392 5.3175 48.1593 5.4977 48.1593 5.60583C48.1593 5.71395 47.7508 6.31463 47.2463 6.92733C46.5975 7.72022 46.2612 8.03258 46.0689 8.03258C45.7326 8.03258 45.5163 7.81633 45.5163 7.49197C45.5163 7.11954 47.2343 5.02917 47.5346 5.02917C47.5827 5.02917 47.7508 5.11327 47.895 5.22139ZM35.9655 6.23053C36.458 6.83121 36.8665 7.38384 36.8665 7.46794C36.8665 7.68419 36.6022 7.98453 36.3379 8.08063C36.1817 8.1407 36.0255 8.04459 35.7733 7.76828C34.2595 6.00228 34.0553 5.66589 34.3436 5.32951C34.68 4.92105 35.0284 5.11327 35.9655 6.23053ZM42.9935 8.47708C44.9517 9.00568 46.7057 10.7236 47.3304 12.7179C47.6668 13.7991 47.6668 15.3849 47.3304 16.4541C47.0781 17.247 46.4053 18.3403 45.7085 19.0611C45.204 19.5897 44.2068 20.2264 44.0867 20.0943C44.0266 20.0342 43.8704 19.5777 43.7143 19.0851C42.6571 15.5411 39.6176 12.9462 36.0496 12.5377C35.3167 12.4536 35.2927 12.4416 35.3648 12.1533C35.4008 11.9851 35.6531 11.5165 35.9174 11.0961C37.3951 8.74138 40.1943 7.70821 42.9935 8.47708ZM28.7333 9.20992C30.7035 9.91872 32.4695 11.4084 33.3225 13.0783L33.779 13.9793L34.692 13.9433C36.7824 13.8472 38.8487 14.6761 40.3504 16.1898C41.8882 17.7516 42.5129 19.2894 42.5129 21.5359C42.5129 23.1337 42.3327 23.9506 41.6719 25.2721C40.6508 27.3625 38.6445 28.9123 36.4941 29.2847C35.2447 29.5009 17.957 29.4649 16.9118 29.2487C15.2179 28.8882 13.5 27.6268 12.7311 26.1732C12.2506 25.2721 11.8781 23.8305 11.8781 22.8334C11.8781 19.89 14.0526 17.223 17.056 16.4541L17.933 16.2379L18.1493 15.2888C18.8581 12.2734 21.1046 9.94275 24.132 9.08978C25.2133 8.78944 27.7241 8.84951 28.7333 9.20992ZM51.8235 10.3152C51.9556 10.4593 52.0037 10.6395 51.9556 10.8318C51.8835 11.1321 51.6793 11.2402 49.8773 11.937C49.0243 12.2614 48.9883 12.2734 48.76 12.0571C48.5077 11.8289 48.4597 11.5646 48.6278 11.3003C48.724 11.1441 51.1867 10.0989 51.4751 10.0749C51.5472 10.0749 51.7033 10.183 51.8235 10.3152ZM7.43309 13.7391C7.86558 14.1235 7.82954 17.3792 7.39705 17.7036C7.25289 17.7997 6.66422 17.8597 5.57098 17.8597L3.96115 17.8717L3.6488 17.5113C3.31242 17.1029 3.27637 16.6704 3.42054 14.8083C3.52866 13.4507 3.61276 13.4027 5.6791 13.4868C6.84442 13.5348 7.27691 13.5949 7.43309 13.7391ZM59.0557 13.703C59.32 13.9433 59.332 14.0394 59.332 15.6733V17.3912L59.0076 17.6435C58.6953 17.8958 58.5751 17.9078 57.0734 17.8597C55.776 17.8117 55.4396 17.7636 55.2714 17.5954C55.1032 17.4272 55.0671 17.1269 55.0671 15.7333C55.0671 13.4507 54.9951 13.5108 57.6381 13.4627C58.6592 13.4387 58.8034 13.4627 59.0557 13.703ZM50.7422 16.334C51.9917 16.6343 52.1478 16.7304 52.0998 17.1389C52.0397 17.6795 51.7634 17.7156 50.4779 17.4152C49.0603 17.0788 48.8801 16.9947 48.8801 16.6584C48.8801 16.322 49.2285 15.9375 49.4688 16.0096C49.5769 16.0457 50.1536 16.1898 50.7422 16.334ZM47.1261 20.2384C47.4385 20.3586 49.1204 22.4249 49.1204 22.6772C49.1204 23.0256 48.6759 23.3019 48.3515 23.1457C47.9791 22.9655 46.5495 21.1635 46.5014 20.8151C46.4774 20.6229 46.5375 20.4427 46.6816 20.3345C46.9459 20.1423 46.8979 20.1543 47.1261 20.2384ZM59.1157 22.2928C59.308 22.461 59.332 22.7253 59.332 24.263C59.332 26.5576 59.4161 26.4735 57.0975 26.3894C55.776 26.3414 55.4396 26.2933 55.2714 26.1251C55.1032 25.9569 55.0671 25.6686 55.0671 24.263C55.0671 22.1246 55.0671 22.1126 56.6169 22.0525C58.0946 21.9924 58.8635 22.0645 59.1157 22.2928ZM7.49316 22.3288C7.67336 22.521 7.69739 22.8093 7.70941 24.263C7.72142 26.5095 7.7935 26.4495 5.48688 26.3894C3.3845 26.3414 3.48061 26.4495 3.46859 24.2029C3.46859 21.9804 3.36047 22.0885 5.57098 22.0885C7.10872 22.0885 7.30094 22.1126 7.49316 22.3288ZM7.49316 30.8705C7.76947 31.1468 7.80551 34.5106 7.5292 34.7749C7.39705 34.9071 6.92852 34.9671 5.6791 35.0272C3.36047 35.1233 3.45658 35.2074 3.45658 32.8407C3.45658 30.4981 3.36047 30.5822 5.65507 30.6422C6.96456 30.6663 7.349 30.7143 7.49316 30.8705ZM59.0196 30.8705C59.332 31.1108 59.332 31.1228 59.332 32.8287C59.332 35.0633 59.4041 34.9912 57.2416 35.0392C55.7519 35.0873 55.6438 35.0753 55.3194 34.811L54.971 34.5347L55.0431 32.7927C55.1272 30.5461 55.0431 30.6182 57.1695 30.6182C58.5391 30.6182 58.7313 30.6422 59.0196 30.8705Z" fill="#DEFFFD"/>
<path d="M24.9724 10.4347C22.858 10.8312 20.9598 12.2848 20.0708 14.183C19.6864 14.9999 19.3259 16.2974 19.3259 16.886C19.3259 17.3786 19.0256 17.6068 18.2447 17.715C16.8151 17.8952 15.4455 18.604 14.5445 19.6251C12.0577 22.4483 13.5834 27.0616 17.2596 27.8425C17.7041 27.9386 20.6715 27.9746 26.8104 27.9746C36.4694 27.9746 36.3973 27.9746 37.7669 27.3139C41.0466 25.716 42.1278 21.0307 39.9413 17.9432C39.3887 17.1744 38.5357 16.4295 37.7188 16.021C36.7818 15.5525 36.2291 15.4444 34.5232 15.4324L32.8413 15.4204L32.2887 14.2791C31.3876 12.417 30.1502 11.2877 28.3602 10.687C27.5192 10.3987 25.8133 10.2665 24.9724 10.4347Z" fill="#DEFFFD"/>
<path d="M104.424 11.1956L104 11.3833L104.051 15.8242C104.068 18.2635 104.136 20.3745 104.203 20.5153C104.339 20.8905 104.593 21 105.288 21C106.458 21 106.441 21.0156 106.441 18.8734V16.9344H106.932C107.186 16.9344 107.797 16.9969 108.288 17.0908C109.508 17.294 110 17.0751 110 16.3089C110 15.4645 109.797 15.3707 108 15.3707H106.407L106.458 13.3692C106.492 12.2746 106.458 11.2895 106.39 11.18C106.22 10.9298 104.949 10.9455 104.424 11.1956Z" fill="#DEFFFD"/>
<path d="M122.709 11.2468C122.627 11.3852 122.627 11.7699 122.692 12.1392C122.774 12.4777 122.823 13.0008 122.839 13.2624V13.7701H121.288H119.737L119.835 13.1701C119.916 12.6777 119.884 12.5392 119.639 12.4161C119.263 12.2315 112.241 12.293 112.061 12.4931C111.996 12.5546 111.979 14.3702 112.028 16.5089L112.11 20.4017L112.535 20.571C113.025 20.7402 113.939 20.6479 114.282 20.3709C114.429 20.2632 115.278 20.2017 116.748 20.2171C119.279 20.2325 119.786 20.1094 119.867 19.417L119.916 19.0015H121.37H122.839L122.79 20.9556L122.758 22.9251L123.574 22.9712C125.011 23.0482 124.946 23.3867 124.979 17.0167C125.028 11.7084 125.011 11.416 124.717 11.216C124.277 10.9083 122.888 10.939 122.709 11.2468ZM117.499 14.0317C117.597 14.1856 117.679 16.2781 117.646 17.5706L117.614 18.5399H115.981H114.347V16.3089V14.0933L115.703 14.0317C116.438 14.0163 117.124 13.9702 117.238 13.9548C117.336 13.9394 117.467 13.9702 117.499 14.0317ZM122.807 16.3705L122.856 17.4629H121.288H119.737V16.3397V15.2319L121.239 15.2626L122.758 15.2934L122.807 16.3705Z" fill="#DEFFFD"/>
<path d="M140.22 12.1214L139.671 12.3033V17.1855C139.671 20.2483 139.608 22.1132 139.514 22.2042C139.185 22.5074 136.536 22.7349 132.54 22.7955C130.251 22.8258 128.292 22.8713 128.198 22.9168C127.712 23.0836 128.198 24.4027 128.809 24.5695C129.64 24.7818 135.565 24.5088 138.182 24.1298C139.154 23.9933 139.546 23.9933 139.64 24.1146C139.702 24.2056 139.749 25.0395 139.734 25.9796C139.718 26.9045 139.765 27.7384 139.812 27.8293C139.985 28.0871 141.395 28.0416 141.63 27.7687C141.787 27.5867 141.818 26.207 141.803 21.8858C141.803 18.7927 141.85 15.3964 141.928 14.3502C142.038 12.9402 142.022 12.4095 141.881 12.273C141.599 11.9849 140.831 11.9091 140.22 12.1214Z" fill="#DEFFFD"/>
<path d="M154.983 12.0991C153.188 12.5627 152.085 13.834 152.085 15.4493C152.085 16.3018 152.246 16.7205 152.835 17.3935C153.394 18.0516 154.174 18.4853 155.012 18.6199L155.615 18.7246V19.607V20.4894L152.467 20.4595C150.746 20.4446 149.26 20.4745 149.157 20.5343C148.907 20.6988 148.966 21.2971 149.26 21.671L149.51 22H156.601C160.5 22 163.765 21.9551 163.854 21.8953C164.089 21.7457 164.03 20.983 163.751 20.7586C163.574 20.5941 162.75 20.5343 160.485 20.4745L157.454 20.3997L157.41 19.5323C157.366 18.7695 157.395 18.6798 157.66 18.6798C158.234 18.6798 159.529 18.0815 159.999 17.6029C161.588 15.9279 161.059 13.505 158.881 12.4581C158.219 12.144 157.778 12.0542 156.792 12.0094C156.101 11.9795 155.292 12.0243 154.983 12.0991ZM157.851 13.834C158.602 14.2229 158.852 14.6416 158.852 15.4642C158.852 16.1073 158.793 16.3018 158.44 16.6308C157.528 17.5132 155.38 17.4982 154.527 16.6009C153.835 15.868 153.894 14.6865 154.659 14.0434C155.321 13.49 156.969 13.3704 157.851 13.834Z" fill="#DEFFFD"/>
<path d="M93.7343 13.1172C93.4077 13.2783 93.4388 14.157 93.781 14.4206C94.2321 14.8014 94.6677 14.8454 96.3944 14.6843C97.421 14.5817 98.1211 14.5817 98.1988 14.655C98.6033 15.0358 96.5966 17.3645 94.7766 18.6533C93.0343 19.8835 92.7077 20.3229 93.221 20.8062C93.7966 21.3481 95.1655 20.7476 97.2033 19.078L98.4944 18.0235L99.3811 18.8144C100.61 19.9128 101.31 20.3815 101.854 20.484C102.243 20.5572 102.383 20.4987 102.663 20.1765C103.239 19.4881 103.114 19.1805 101.994 18.5654C101.45 18.2725 100.703 17.7306 100.346 17.3937L99.6922 16.764L100.268 15.6655C100.579 15.0651 101.014 14.4206 101.232 14.2449C101.512 14.0106 101.59 13.8202 101.559 13.4687L101.512 13H97.7322C95.6477 13 93.8588 13.0586 93.7343 13.1172Z" fill="#DEFFFD"/>
<path d="M168.078 13.0519C167.89 13.2585 168.064 14.2119 168.368 14.6092C168.686 15.0382 168.701 15.1177 168.57 16.3254C168.498 17.0246 168.455 18.2323 168.484 19.0109C168.57 21.188 168.31 21.0767 173.378 20.9337C175.636 20.8701 177.62 20.7589 177.75 20.6795C178.083 20.4729 178.083 19.726 177.75 19.2652L177.504 18.9315L174.217 19.1063C172.407 19.2016 170.858 19.2493 170.771 19.1857C170.684 19.1222 170.626 18.2164 170.626 16.8657V14.6569H174.029H177.432L177.591 14.2755C177.721 13.9895 177.707 13.7829 177.562 13.4492L177.359 13.0042H172.755C170.221 12.9883 168.107 13.0201 168.078 13.0519Z" fill="#DEFFFD"/>
<path d="M132.01 13.0828C130.175 13.5075 129.014 15.0394 129 17.0567C129 19.9234 131.523 21.6677 134.389 20.7576C137.07 19.9234 137.901 16.2529 135.866 14.2052C134.948 13.28 133.257 12.7946 132.01 13.0828ZM133.959 15.0091C134.662 15.358 135.02 16.0708 135.02 17.0719C135.02 17.6938 134.948 18.0123 134.719 18.3156C133.759 19.6049 131.809 19.4077 131.121 17.9516C130.204 16.0405 132.11 14.0839 133.959 15.0091Z" fill="#DEFFFD"/>
<path d="M172.683 21.2627C172.605 21.4925 172.636 22.0178 172.884 23.6103L172.992 24.3162L169.523 24.267L166.054 24.2013L166.007 24.7923C165.976 25.2684 166.038 25.4654 166.348 25.7117C166.72 26.0236 166.967 26.04 173.596 25.9579C177.376 25.9251 180.582 25.8102 180.737 25.7281C181.077 25.5475 181.093 24.7266 180.752 24.3655C180.535 24.1356 180.163 24.1192 177.747 24.2177L174.99 24.3326L174.882 23.6431C174.82 23.2655 174.82 22.5924 174.882 22.1328C175.021 21.0985 174.913 21 173.674 21C173.008 21 172.76 21.0657 172.683 21.2627Z" fill="#DEFFFD"/>
<path d="M99.4548 22.2668C97.4679 22.9022 96.5346 24.4979 97.227 26.0654C97.5431 26.7714 97.9797 27.181 98.8828 27.6187C99.5752 27.9718 99.7709 28 101.442 28C103.128 28 103.308 27.9718 104.121 27.5905C106.861 26.3337 106.544 23.34 103.564 22.295C102.465 21.9137 100.584 21.8996 99.4548 22.2668ZM102.796 23.6083C103.489 23.8907 103.971 24.5968 103.865 25.2322C103.715 26.136 102.857 26.6585 101.517 26.6585C99.7107 26.6585 98.6871 25.5711 99.2892 24.3143C99.6655 23.5377 101.607 23.1423 102.796 23.6083Z" fill="#DEFFFD"/>
<path d="M115.471 22.1185C115.069 22.2714 114.965 22.3902 115.01 22.645C115.039 22.8318 115.099 23.9528 115.159 25.1416C115.308 28.2497 114.861 27.9949 120.119 27.9949C124.216 27.9949 124.424 27.978 124.707 27.6553C125.11 27.1967 125.095 26.5343 124.678 26.2286C124.38 26.0248 123.829 26.0248 121.013 26.1777C118.57 26.3135 117.661 26.3135 117.527 26.1607C117.423 26.0418 117.363 25.2945 117.378 24.1905C117.378 23.0017 117.334 22.3563 117.214 22.2544C116.901 21.9826 116.008 21.9147 115.471 22.1185Z" fill="#DEFFFD"/>
<path d="M151.089 23.1654C150.966 23.3044 150.966 23.4956 151.12 23.9127C151.228 24.2082 151.351 25.112 151.398 25.9289C151.552 28.1883 151.228 28.0667 156.815 27.945C161.878 27.8407 161.708 27.8755 161.955 26.8326C162.14 25.9636 161.909 25.9115 158.22 26.0679C156.352 26.1548 154.562 26.1896 154.253 26.1374L153.682 26.0679L153.636 24.5558L153.589 23.0611L152.432 23.0089C151.706 22.9742 151.197 23.0437 151.089 23.1654Z" fill="#DEFFFD"/>
</svg>
